<svg width="527" height="464" viewBox="0 0 527 464" fill="none" xmlns="http://www.w3.org/2000/svg">
<g style="mix-blend-mode:overlay" opacity="0.25">
<path d="M160.009 96C133.499 96 112.009 117.49 112.009 144C112.009 170.51 133.499 192 160.009 192C186.519 192 208.009 170.51 208.009 144C208.009 117.49 186.509 96 160.009 96ZM455.109 8H71.1091C36.6591 8 8 36.65 8 72V392C8 427.35 36.65 456 71.1 456H455.1C490.45 456 519.1 427.35 519.1 392V72C519.109 36.65 491.309 8 455.109 8ZM471.109 385.3L334.309 199.4C331.809 194.8 326.109 192 320.009 192C313.896 192 308.189 194.768 304.799 199.379L198.199 343.479L161.109 297.379C157.668 293.1 152.175 290.57 146.339 290.57C140.497 290.57 135.009 293.099 131.559 297.379L56.0391 391.189C56.0391 391.16 56.0391 391.218 56.0391 391.189L55.9991 72C55.9991 63.178 63.1771 56 71.9991 56H455.999C464.821 56 471.999 63.178 471.999 72V385.3H471.109Z" stroke="#EDEDED" stroke-width="15"/>
</g>
</svg>
