<svg width="656" height="464" viewBox="0 0 656 464" fill="none" xmlns="http://www.w3.org/2000/svg">
<g style="mix-blend-mode:overlay" opacity="0.25">
<path d="M72 72C72 36.7 100.7 8 136 8H520C555.3 8 584 36.7 584 72V328H520V72H136V328H72V72ZM8 379.2C8 368.6 16.6 360 27.2 360H628.8C639.4 360 648 368.6 648 379.2C648 421.6 613.6 456 571.2 456H84.8C42.4 456 8 421.6 8 379.2ZM289 185L258 216L289 247C298.4 256.4 298.4 271.6 289 280.9C279.6 290.2 264.4 290.3 255.1 280.9L207.1 232.9C197.7 223.5 197.7 208.3 207.1 199L255.1 151C264.5 141.6 279.7 141.6 289 151C298.3 160.4 298.4 175.6 289 184.9V185ZM401 151L449 199C458.4 208.4 458.4 223.6 449 232.9L401 280.9C391.6 290.3 376.4 290.3 367.1 280.9C357.8 271.5 357.7 256.3 367.1 247L398.1 216L367.1 185C357.7 175.6 357.7 160.4 367.1 151.1C376.5 141.8 391.7 141.7 401 151.1V151Z" stroke="#EDEDED" stroke-width="15"/>
</g>
</svg>
